<svg id="Layer_1" data-name="Layer 1" xmlns="http://www.w3.org/2000/svg" viewBox="0 0 1738.65 650.16"><defs><style>.cls-1{opacity:0.37;}.cls-2{fill:#e85f21;}.cls-3{fill:#0067a9;}</style></defs><title>360</title><g class="cls-1"><path class="cls-2" d="M211.62,605.12q-7.24-57.86-43.3-98T66.72,457.16l89-255.11a16.63,16.63,0,0,0,.42-5.76c-1-7.46-5.53-10.54-13.62-9.54L-262.31,237.2c-9,1.16-12.87,6.18-11.71,15l11,87.87c1,8.87,6,12.87,14.88,11.71L-20,323.35-89.91,551.22c0.66,4.51,3.17,6.36,7.52,5.85a168.06,168.06,0,0,1,18-5.13c4.82-1,10.11-1.8,16-2.47a256,256,0,0,1,43.89-1.6c15.11,0.81,29.14,3.66,41.8,8.85a82.57,82.57,0,0,1,32.26,23.71c9,10.51,14.36,24.33,16.53,41.43,3.49,27.37,1,50.12-7.07,68.25l134.53-35.19A283.79,283.79,0,0,0,211.62,605.12Z" transform="translate(274.22 -51.52)"/><path class="cls-2" d="M596.25,130.05l-112.31,14a16.66,16.66,0,0,0-10.68,5.31,24.74,24.74,0,0,0-5.46,10.28L360.1,433l0,6.1A241.17,241.17,0,0,1,507.4,327.75a248.24,248.24,0,0,1,30.47-5.95l73.42-180.11Q609.61,128.4,596.25,130.05Z" transform="translate(274.22 -51.52)"/><path class="cls-2" d="M1141.38,54.05q66.73-8.33,121.65,10.78a269.56,269.56,0,0,1,96.49,58q41.53,38.85,67.27,95.52t34.06,123.38q8.33,66.73-2.66,128t-41.71,109.13a269.12,269.12,0,0,1-79.26,79.93q-48.51,32.05-115.26,40.38t-122.21-10.72q-55.49-19-96.47-58T936,534.92q-26.28-56.58-34.6-123.32t3.21-128q11.53-61.31,41.72-109.13t79.24-79.94Q1074.64,62.39,1141.38,54.05Zm65.56,534q43.38-5.42,70.85-25.23a132.24,132.24,0,0,0,42.27-50.46q14.81-30.65,17.88-69.45a406.53,406.53,0,0,0-2.36-82.16,406.64,406.64,0,0,0-17.92-80.22q-12.53-36.84-34.41-62.92a137.09,137.09,0,0,0-53.45-39.07q-31.57-13-74.95-7.58t-70.76,25.78a132.08,132.08,0,0,0-41.64,50.95q-14.27,30.58-17.32,69.38a405.54,405.54,0,0,0,2.36,82.16,405.43,405.43,0,0,0,17.92,80.22q12.49,36.87,33.85,63A127.5,127.5,0,0,0,1132.08,581Q1163.56,593.48,1206.94,588.05Z" transform="translate(274.22 -51.52)"/><line class="cls-3" x1="1554.57" y1="328.05" x2="1552.59" y2="320.52"/></g></svg>